# xmcd
#
# Track frame offsets:
#	150
#	28900
#	43199
#	52304
#	63719
#	74399
#	91423
#	105739
#	120625
#	137093
#	156559
#	172895
#	183590
#	208843
#	222743
#	232947
#
# Disc length: 3289 seconds
#
# Revision: 1
# Processed by: cddbd v1.4PL0 Copyright (c) Steve Scherf et al.
# Submitted via: audiograbber 1.81.02
#
DISCID=010cd710
DTITLE=Various Artist - Best of the Blues - Disc 1
DYEAR=1900
DGENRE=Blues
TTITLE0=BB King - Payin' the Cost to be the Boss
TTITLE1=Ray Charles - Blues is my Middle Name
TTITLE2=Billie Holiday - Please Don't Talk about me When I'm Gone
TTITLE3=John Lee Hooker - Boom Boom
TTITLE4=Dinah Washington - Trouble Trouble
TTITLE5=Ike and Tina Turner - I Smell Trouble
TTITLE6=Buddy Guy - Broken Hearted Blues
TTITLE7=Charles Brown - Baby Let Me Hold Your Hand
TTITLE8=Memphis Slim - Blue and Disgusted
TTITLE9=BB King - Sweet Sixteen
TTITLE10=Rare Earth with Peter Rivera - I Know I'm Losing You
TTITLE11=Mike Bloomfield - Rx for the Blues
TTITLE12=Roy Brown - Boogie Woogie Blues
TTITLE13=Ray Charles - I'm Going Down to the River
TTITLE14=Bo Diddley - Mess Around
TTITLE15=Buddy Guy and Junior Wells - No Use Cryin'
EXTD=
EXTT0=
EXTT1=
EXTT2=
EXTT3=
EXTT4=
EXTT5=
EXTT6=
EXTT7=
EXTT8=
EXTT9=
EXTT10=
EXTT11=
EXTT12=
EXTT13=
EXTT14=
EXTT15=
PLAYORDER=
